<svg xmlns="http://www.w3.org/2000/svg" width="178" height="83.217" viewBox="0 0 178 83.217">
  <g id="Group_1620" data-name="Group 1620" transform="translate(-110 -58)">
    <path id="Path_1" data-name="Path 1" d="M271.038,78.428a20,20,0,0,1-20,20c-.445,0-.891-.015-1.328-.046a17.419,17.419,0,1,0-18.629-18.629c-.031-.437-.046-.883-.046-1.328a20,20,0,1,1,40,0Z" transform="translate(-19.59 25.209)" fill="#ffbe00"/>
    <path id="Path_2" data-name="Path 2" d="M267.494,8.556c.238,1.995.363,3.989.447,5.984.053,1,.065,1.994.1,2.992l.032,2.992-.03,2.992c-.032,1-.042,1.994-.1,2.992-.084,1.994-.21,3.989-.449,5.983-.24-1.994-.365-3.989-.449-5.983-.054-1-.064-1.995-.1-2.992l-.03-2.992.032-2.992c.031-1,.043-1.994.1-2.992C267.131,12.545,267.255,10.551,267.494,8.556Z" transform="translate(-37.028 49.444)" fill="#ffbe00"/>
    <path id="Path_3" data-name="Path 3" d="M289.8,36.494c-.382.837-.8,1.653-1.227,2.466s-.868,1.616-1.315,2.416-.911,1.591-1.394,2.372l-.724,1.17c-.253.383-.5.773-.759,1.15.188-.42.4-.828.6-1.243L285.6,43.6c.422-.815.869-1.616,1.316-2.415s.912-1.591,1.394-2.371S289.278,37.253,289.8,36.494Z" transform="translate(-45.514 35.867)" fill="#ffbe00"/>
    <path id="Path_4" data-name="Path 4" d="M313.753,49.321c-.783,1.008-1.621,1.963-2.476,2.9s-1.737,1.846-2.627,2.747-1.807,1.775-2.746,2.628-1.89,1.693-2.9,2.475c.783-1.009,1.619-1.963,2.475-2.9s1.737-1.846,2.628-2.746,1.808-1.774,2.748-2.627S312.744,50.1,313.753,49.321Z" transform="translate(-54.565 29.634)" fill="#ffbe00"/>
    <path id="Path_5" data-name="Path 5" d="M325.444,81.476c-.9.317-1.807.594-2.718.865s-1.826.521-2.743.766-1.839.473-2.766.68l-1.391.309c-.467.089-.931.192-1.4.27.448-.163.9-.3,1.353-.452l1.364-.413c.91-.274,1.827-.52,2.744-.765s1.839-.472,2.766-.679S324.506,81.64,325.444,81.476Z" transform="translate(-60.115 14.008)" fill="#ffbe00"/>
    <path id="Path_6" data-name="Path 6" d="M338.9,101.314c-2.04.239-4.08.363-6.12.448-1.02.053-2.04.065-3.06.1l-3.06.032-3.06-.03c-1.02-.032-2.04-.042-3.06-.1-2.04-.084-4.08-.209-6.12-.449,2.04-.24,4.079-.365,6.12-.449,1.02-.053,2.04-.064,3.06-.1l3.06-.03,3.06.032c1.02.031,2.04.043,3.06.1C334.822,100.951,336.862,101.076,338.9,101.314Z" transform="translate(-60.115 4.646)" fill="#ffbe00"/>
    <path id="Path_7" data-name="Path 7" d="M325.444,115.836a27.009,27.009,0,0,1-2.833-.457c-.934-.19-1.857-.422-2.777-.663s-1.83-.519-2.733-.827a26.462,26.462,0,0,1-2.677-1.034,26.7,26.7,0,0,1,2.833.456c.935.19,1.857.423,2.777.664s1.83.52,2.733.828A26.879,26.879,0,0,1,325.444,115.836Z" transform="translate(-60.115 -1.241)" fill="#ffbe00"/>
    <path id="Path_8" data-name="Path 8" d="M238.518,35.923c.554.808,1.072,1.636,1.584,2.467s1.005,1.674,1.5,2.518.963,1.7,1.418,2.562l.682,1.3c.215.439.442.872.647,1.316-.281-.4-.54-.816-.81-1.223l-.775-1.244c-.516-.829-1.005-1.673-1.495-2.518s-.962-1.7-1.417-2.562S238.935,36.809,238.518,35.923Z" transform="translate(-23.227 36.145)" fill="#ffbe00"/>
    <path id="Path_9" data-name="Path 9" d="M215.061,45.807c1.022.814,1.99,1.682,2.94,2.568s1.873,1.8,2.787,2.718,1.8,1.868,2.667,2.836,1.718,1.949,2.513,2.987c-1.023-.814-1.991-1.681-2.94-2.568s-1.873-1.8-2.787-2.718-1.8-1.869-2.666-2.837S215.857,46.844,215.061,45.807Z" transform="translate(-11.827 31.342)" fill="#ffbe00"/>
    <path id="Path_10" data-name="Path 10" d="M204.123,77.171c1,.177,1.983.4,2.967.62s1.963.469,2.941.719,1.951.517,2.919.8l1.452.433c.48.158.964.3,1.441.472-.5-.085-.993-.194-1.489-.29l-1.478-.329c-.985-.221-1.964-.47-2.941-.72s-1.951-.517-2.918-.806S205.08,77.5,204.123,77.171Z" transform="translate(-6.512 16.1)" fill="#ffbe00"/>
    <path id="Path_11" data-name="Path 11" d="M104.627,149.415a11.417,11.417,0,0,0,3.593,2.627,24.069,24.069,0,0,0,4.129,1.628,45.67,45.67,0,0,0,8.709,1.69c2.947.318,5.917.448,8.888.472,1.488-.01,2.973-.012,4.462-.076,1.487-.025,2.976-.13,4.462-.208,5.949-.363,11.886-1.087,17.807-1.934q4.44-.654,8.869-1.422l8.919-1.588a179.667,179.667,0,0,1,36.45-2.82,99.107,99.107,0,0,1,18.2,2.253,67.891,67.891,0,0,1,8.794,2.581,51.209,51.209,0,0,1,8.252,3.87,71.839,71.839,0,0,0-17.411-4.422,120.432,120.432,0,0,0-17.869-.891,231.394,231.394,0,0,0-35.636,3.923q-2.214.392-4.427.814l-4.493.809c-3.005.5-6.014.982-9.043,1.347q-4.536.591-9.111.925c-3.046.24-6.107.351-9.169.393-3.065.012-6.133-.073-9.2-.313a74.055,74.055,0,0,1-9.139-1.3l-1.13-.242-1.123-.287c-.749-.18-1.488-.414-2.227-.635a36.516,36.516,0,0,1-4.338-1.629,25.138,25.138,0,0,1-4.027-2.29,14.749,14.749,0,0,1-1.775-1.481A7.552,7.552,0,0,1,104.627,149.415Z" transform="translate(41.84 -18.171)" fill="#fff"/>
    <path id="Path_12" data-name="Path 12" d="M94.085,132.127a11.408,11.408,0,0,0,3.258,2.334,22.761,22.761,0,0,0,3.7,1.5,43.5,43.5,0,0,0,7.805,1.621,76.594,76.594,0,0,0,7.973.532c2.67.015,5.339-.007,8.011-.175a229.583,229.583,0,0,0,31.879-4.389l7.977-1.6c2.684-.506,5.381-1,8.107-1.4A91.3,91.3,0,0,1,189.36,129.5a64.6,64.6,0,0,1,16.384,2.694,62.9,62.9,0,0,1,7.724,2.908c.624.284,1.248.566,1.859.876s1.232.593,1.832.924q1.809.968,3.556,2.027-.962-.349-1.913-.711c-.635-.239-1.283-.449-1.921-.674s-1.284-.432-1.924-.646-1.289-.406-1.936-.6c-2.588-.758-5.193-1.412-7.821-1.9a73.807,73.807,0,0,0-15.862-1.269,107.709,107.709,0,0,0-15.845,1.742c-2.634.463-5.269.983-7.907,1.543-2.639.54-5.286,1.117-7.98,1.648a163.269,163.269,0,0,1-32.694,3.474l-2.066-.03-2.068-.094-1.033-.048-1.033-.078c-.689-.055-1.377-.105-2.064-.175a65.613,65.613,0,0,1-8.194-1.323,38.584,38.584,0,0,1-7.876-2.656,23.032,23.032,0,0,1-3.6-2.084,16.009,16.009,0,0,1-1.591-1.333A7.434,7.434,0,0,1,94.085,132.127Z" transform="translate(46.963 -9.306)" fill="#19bc9d"/>
    <path id="Path_13" data-name="Path 13" d="M42.693,105.167l1.58.411c.024.324.037.6.037.841a3.659,3.659,0,0,1-1.346,2.972,5.486,5.486,0,0,1-3.607,1.112q-5.672,0-5.672-6.382a7.168,7.168,0,0,1,1.654-4.911,5.464,5.464,0,0,1,4.308-1.883q4.14,0,4.14,3.981l-1.589.729q.029-.561.028-.869,0-2.822-2.261-2.822-2.393,0-2.392,5.99,0,5.149,2.672,5.149a2.3,2.3,0,0,0,1.836-.878,3.308,3.308,0,0,0,.734-2.2A9.256,9.256,0,0,0,42.693,105.167Z" transform="translate(76.315 6.305)" fill="#fff"/>
    <path id="Path_14" data-name="Path 14" d="M60.6,103.744q4.673,0,4.673,4.934T60.6,113.612q-4.682,0-4.682-4.934T60.6,103.744Zm-.009.832q-1.131,0-1.131,4.1t1.131,4.1q1.14,0,1.14-4.1T60.591,104.576Z" transform="translate(65.51 3.187)" fill="#fff"/>
    <path id="Path_15" data-name="Path 15" d="M90.735,113.38H87.324v-7.074q0-.924-.542-.925-1.252,0-1.252,2.663v5.336H82.119v-6.925q0-1.056-.486-1.056-1.271,0-1.271,2.654v5.326H76.952v-9.447a24.769,24.769,0,0,0,3.411-.233v1.626a3.6,3.6,0,0,1,2.972-1.617,2.329,2.329,0,0,1,2.2,1.523,3.426,3.426,0,0,1,2.85-1.542,2.094,2.094,0,0,1,2.355,2.383Z" transform="translate(55.289 3.213)" fill="#fff"/>
    <path id="Path_16" data-name="Path 16" d="M107.438,116.593V104a28.169,28.169,0,0,0,3.411-.243v1.42a2.783,2.783,0,0,1,2.336-1.43,2.688,2.688,0,0,1,2.346,1.341,6.478,6.478,0,0,1,.878,3.593q0,4.981-3.318,4.981a2.819,2.819,0,0,1-2.243-1.028v3.962Zm4.5-11.475q-1.131,0-1.131,3.513,0,3.654,1.084,3.654.972,0,.972-3.654Q112.867,105.118,111.942,105.118Z" transform="translate(40.474 3.187)" fill="#fff"/>
    <path id="Path_17" data-name="Path 17" d="M136.707,113.043a6.721,6.721,0,0,1-2.439.486q-1.757,0-2.168-1.093a2.869,2.869,0,0,1-2.448,1.14q-2.981,0-2.981-2.766,0-2.1,2.728-2.953,2.5-.785,2.5-1.888a1.276,1.276,0,0,0-1.439-1.449q-1.664,0-1.663,1.4a3.6,3.6,0,0,0,.262,1.159l-1.692-.327a5.585,5.585,0,0,1-.065-.822q0-2.242,4.093-2.243,3.888,0,3.888,2.094V111.5q0,.878.57.878a1.217,1.217,0,0,0,.523-.2Zm-4.831-5.327a2.892,2.892,0,0,1-.739.608,2.208,2.208,0,0,0-1.056,2.075q0,1.869.729,1.869,1.066,0,1.066-1.851Z" transform="translate(31.127 3.213)" fill="#fff"/>
    <path id="Path_18" data-name="Path 18" d="M156.337,113.4h-3.411v-6.915q0-1.056-.589-1.056t-1.037.836a4.2,4.2,0,0,0-.439,1.976V113.4H147.45v-9.438a24.365,24.365,0,0,0,3.411-.233v1.766a3.737,3.737,0,0,1,3.1-1.757,2.115,2.115,0,0,1,2.374,2.411Z" transform="translate(21.029 3.195)" fill="#fff"/>
    <path id="Path_19" data-name="Path 19" d="M175.292,104.217l-4.317,10.634q-.888,2.187-2.392,2.187a1.958,1.958,0,0,1-1.981-1.243l1.178-.85q.14,1.074.794,1.075.738,0,1.2-1.243l.252-.673-3.794-9.886h3.747l1.9,5.541,2.159-5.541Z" transform="translate(11.904 2.956)" fill="#fff"/>
    <path id="Path_20" data-name="Path 20" d="M205.988,97.727v12.755h-2.831l-5.326-8.074v8.074h-1.243V97.727h2.346l5.813,8.719V97.727Z" transform="translate(-2.85 6.11)" fill="#fff"/>
    <path id="Path_21" data-name="Path 21" d="M227.712,113.043a6.724,6.724,0,0,1-2.439.486q-1.757,0-2.168-1.093a2.868,2.868,0,0,1-2.448,1.14q-2.981,0-2.981-2.766,0-2.1,2.729-2.953,2.5-.785,2.5-1.888a1.276,1.276,0,0,0-1.439-1.449q-1.663,0-1.663,1.4a3.609,3.609,0,0,0,.262,1.159l-1.692-.327a5.584,5.584,0,0,1-.065-.822q0-2.242,4.093-2.243,3.887,0,3.887,2.094V111.5q0,.878.57.878a1.215,1.215,0,0,0,.523-.2Zm-4.831-5.327a2.89,2.89,0,0,1-.738.608,2.208,2.208,0,0,0-1.056,2.075q0,1.869.729,1.869,1.066,0,1.066-1.851Z" transform="translate(-13.098 3.213)" fill="#fff"/>
    <path id="Path_22" data-name="Path 22" d="M252.237,113.38h-3.411v-7.074q0-.924-.542-.925-1.252,0-1.252,2.663v5.336h-3.411v-6.925q0-1.056-.486-1.056-1.271,0-1.271,2.654v5.326h-3.411v-9.447a24.758,24.758,0,0,0,3.411-.233v1.626a3.6,3.6,0,0,1,2.972-1.617,2.329,2.329,0,0,1,2.2,1.523,3.426,3.426,0,0,1,2.85-1.542,2.094,2.094,0,0,1,2.355,2.383Z" transform="translate(-23.196 3.213)" fill="#fff"/>
    <path id="Path_23" data-name="Path 23" d="M275.326,109.941l1.374.4q-.215,3.261-3.85,3.261-4.71,0-4.71-4.7a5.534,5.534,0,0,1,1.252-3.738,4.036,4.036,0,0,1,3.205-1.457q4.084,0,4.084,5.27H271.71q0,3.7,1.878,3.7,1.756,0,1.756-2.093Q275.345,110.305,275.326,109.941Zm-3.626-2.019h2.038q0-3.289-.991-3.289-.9,0-1.009,2.439Z" transform="translate(-37.622 3.204)" fill="#fff"/>
  </g>
</svg>
