<svg xmlns="http://www.w3.org/2000/svg" width="26" height="26" viewBox="0 0 26 26">
  <path id="Path_307" data-name="Path 307" d="M12.226,8.419l-.14-.833A5.6,5.6,0,0,1,13,7.511v.845A4.671,4.671,0,0,0,12.226,8.419ZM8.355,13a4.653,4.653,0,0,1,3.1-4.381l-.282-.8A5.5,5.5,0,0,0,7.511,13ZM0,13l5.3-2.037L3.439,9.041l2.673-.048-2.3-5.185,5.185,2.3L9.04,3.44,10.963,5.3,13,0l2.037,5.3L16.96,3.44l.048,2.672,5.185-2.3-2.3,5.185,2.672.048L20.7,10.963,26,13l-5.3,2.037,1.856,1.923-2.672.048,2.3,5.185-5.185-2.3L16.96,22.56,15.037,20.7,13,26l-2.037-5.3L9.04,22.56l-.048-2.672-5.185,2.3,2.3-5.185L3.439,16.96,5.3,15.037Zm6.485,3.17.041-.091a7.149,7.149,0,0,1-.282-.677l-.092-.035-.757.784ZM6.666,13A6.334,6.334,0,1,0,13,6.666,6.341,6.341,0,0,0,6.666,13Zm2.31,5.971v-.03a7.234,7.234,0,0,1-1.916-1.916h-.03L5.471,20.529Zm1.658.878-.035-.092a7.065,7.065,0,0,1-.677-.282l-.091.04.02,1.089Zm3.742.219-.022-.021a7.008,7.008,0,0,1-2.709,0l-.022.021L13,23.647Zm1.793-.552-.091-.04a7.2,7.2,0,0,1-.677.282l-.035.092.784.757Zm2.8-2.491h-.03a7.228,7.228,0,0,1-1.916,1.916v.03l3.505,1.558Zm.877-1.658-.092.035a7.158,7.158,0,0,1-.282.677l.04.091,1.089-.019Zm.219-3.743-.021.022a7.012,7.012,0,0,1,0,2.71l.021.022L23.647,13ZM19.515,9.83l-.04.091a7.18,7.18,0,0,1,.282.677l.092.035L20.6,9.85Zm-2.491-2.8v.03a7.234,7.234,0,0,1,1.916,1.916h.03l1.558-3.5Zm-1.658-.878.035.092a7.035,7.035,0,0,1,.677.282l.091-.041L16.15,5.395Zm-3.743-.219.022.021a7.008,7.008,0,0,1,2.709,0l.022-.021L13,2.353ZM9.83,6.484l.091.041a7.119,7.119,0,0,1,.677-.282l.035-.092L9.85,5.395Zm-2.8,2.491h.03A7.24,7.24,0,0,1,8.975,7.059v-.03l-3.5-1.558Zm-.877,1.658.092-.035a7.082,7.082,0,0,1,.282-.677l-.041-.091-1.089.02Zm-.219.989L2.353,13l3.58,1.377.021-.022a7,7,0,0,1,0-2.71ZM8.7,1.524l-.78.324.323.781.78-.324Zm-6.856,6.4-.324.78.78.324.324-.78Zm0,10.152.78-.324-.324-.78-.78.324Zm6.856,6.4.323-.781-.78-.323-.323.781Zm8.592,0,.78-.324-.323-.781-.78.323Zm6.856-6.4.324-.78-.78-.324-.323.78Zm0-10.152-.78.323.323.78.78-.324ZM17.3,1.524l-.323.781.78.324.323-.781Zm0,0" fill="#dcdcdc"/>
</svg>
