<svg xmlns="http://www.w3.org/2000/svg" width="26.248" height="26" viewBox="0 0 26.248 26">
  <path id="Path_310" data-name="Path 310" d="M4.482,8.646,5.576,9.741a3.354,3.354,0,0,0,.384.33,3.416,3.416,0,0,0-.228.452l-.592,1.43,1.43.592a3.417,3.417,0,0,0,.481.158,3.4,3.4,0,0,0-.038.505v1.548H8.561a3.429,3.429,0,0,0,.505-.038,3.4,3.4,0,0,0,.158.481l.592,1.43,1.43-.592a3.431,3.431,0,0,0,.452-.228,3.418,3.418,0,0,0,.33.384l.671.672v3.76a2.959,2.959,0,0,0-3.785,2.453A2.12,2.12,0,0,0,7.2,25.157H6.35V26H19.9v-.847h-.847a2.119,2.119,0,0,0-1.283-1.944,2.534,2.534,0,0,0-3.878-1.9,2.91,2.91,0,0,0-.343-.281v-4.17l.671-.671a3.419,3.419,0,0,0,.33-.384,3.431,3.431,0,0,0,.452.228l1.43.592.592-1.43a3.427,3.427,0,0,0,.158-.481,3.4,3.4,0,0,0,.505.038h1.548V13.209A3.466,3.466,0,0,0,19.2,12.7a3.4,3.4,0,0,0,.481-.158l1.43-.592-.592-1.43a3.4,3.4,0,0,0-.228-.452,3.418,3.418,0,0,0,.384-.33l1.095-1.1L20.672,7.552a3.376,3.376,0,0,0-.384-.33,3.4,3.4,0,0,0,.228-.452l.592-1.43-1.43-.592a3.417,3.417,0,0,0-.481-.158,3.408,3.408,0,0,0,.038-.505V2.535H17.687a3.436,3.436,0,0,0-.505.038,3.4,3.4,0,0,0-.158-.481L16.431.662,15,1.254a3.4,3.4,0,0,0-.452.228,3.418,3.418,0,0,0-.33-.384L13.124,0,12.029,1.1a3.376,3.376,0,0,0-.33.384,3.4,3.4,0,0,0-.452-.228L9.817.662l-.592,1.43a3.417,3.417,0,0,0-.158.481,3.376,3.376,0,0,0-.505-.038H7.013V4.084a3.466,3.466,0,0,0,.038.505,3.348,3.348,0,0,0-.481.158l-1.43.592.592,1.43a3.4,3.4,0,0,0,.228.452,3.419,3.419,0,0,0-.384.33Zm12.394,14.4a2.11,2.11,0,0,0-1.342.524l.561.635a1.27,1.27,0,0,1,2.11.953H8.044a1.272,1.272,0,0,1,1.27-1.27h.423v-.423a2.117,2.117,0,0,1,4.234,0h.847a2.942,2.942,0,0,0-.4-1.476,1.679,1.679,0,0,1,2.456,1.058ZM6.175,8.15a2.64,2.64,0,0,1,.587-.44L7.2,7.467l-.311-.391a2.63,2.63,0,0,1-.374-.631L6.246,5.8l.648-.269a2.641,2.641,0,0,1,.711-.182l.5-.057-.138-.48a2.637,2.637,0,0,1-.1-.727v-.7h.7a2.636,2.636,0,0,1,.726.1l.48.137.057-.5a2.627,2.627,0,0,1,.182-.711l.268-.648.648.268a2.649,2.649,0,0,1,.631.374l.391.311.243-.437a2.637,2.637,0,0,1,.44-.587l.495-.5.5.5a2.64,2.64,0,0,1,.44.587l.243.437.391-.311a2.627,2.627,0,0,1,.631-.374l.648-.269.269.648a2.642,2.642,0,0,1,.182.711l.057.5.48-.137a2.639,2.639,0,0,1,.726-.1h.7v.7a2.636,2.636,0,0,1-.1.726l-.137.48.5.057a2.629,2.629,0,0,1,.711.182L20,5.8l-.268.648a2.647,2.647,0,0,1-.374.631l-.311.391.437.243a2.627,2.627,0,0,1,.587.44l.495.495-.5.5a2.648,2.648,0,0,1-.587.44l-.437.243.311.391a2.632,2.632,0,0,1,.374.631L20,11.5l-.648.268a2.636,2.636,0,0,1-.711.182l-.5.057.138.48a2.636,2.636,0,0,1,.1.726v.7h-.7a2.638,2.638,0,0,1-.726-.1l-.48-.138-.057.5a2.627,2.627,0,0,1-.182.711l-.268.648-.648-.269a2.648,2.648,0,0,1-.632-.374l-.391-.31-.243.436a2.651,2.651,0,0,1-.44.587l-.072.072v-2.19l3.263-3.263-.6-.6-2.664,2.664V8.822L15.54,6.829l-.6-.6L13.124,8.048,10.46,5.384l-.6.6L12.7,8.822v2.19L11.307,9.617l-.6.6L12.7,12.209v3.46l-.073-.073a2.648,2.648,0,0,1-.44-.587l-.243-.436-.391.31a2.644,2.644,0,0,1-.632.374l-.648.269-.268-.648a2.635,2.635,0,0,1-.182-.711l-.057-.5-.48.138a2.636,2.636,0,0,1-.726.1h-.7v-.7a2.638,2.638,0,0,1,.1-.726L8.1,12l-.5-.057a2.627,2.627,0,0,1-.711-.182L6.245,11.5l.269-.648a2.643,2.643,0,0,1,.374-.631L7.2,9.824l-.437-.242a2.637,2.637,0,0,1-.587-.44l-.5-.5ZM5.08,21.347V20.62a7.756,7.756,0,0,0,1.24-2.079l-.786-.315a6.9,6.9,0,0,1-1.1,1.851H2.963A2.967,2.967,0,0,0,0,23.041v1.27H2.117A2.967,2.967,0,0,0,5.08,21.347ZM.847,23.04a2.119,2.119,0,0,1,2.117-2.117H3.59a6.95,6.95,0,0,1-.641.489l-.643.429.47.7.643-.429a7.782,7.782,0,0,0,.8-.617,2.113,2.113,0,0,1-2.1,1.964H.847Zm19.868-7.778-.786.315a7.745,7.745,0,0,0,1.24,2.079v.727a2.967,2.967,0,0,0,2.963,2.963h2.117v-1.27a2.967,2.967,0,0,0-2.963-2.963H21.818a6.885,6.885,0,0,1-1.1-1.851ZM25.4,20.077V20.5h-1.27a2.113,2.113,0,0,1-2.1-1.964,7.781,7.781,0,0,0,.8.617l.643.429.47-.7-.643-.429a6.9,6.9,0,0,1-.641-.489h.626A2.119,2.119,0,0,1,25.4,20.077Zm-4.657,5.08h.847V26h-.847Zm-16.088,0H5.5V26H4.657Zm0,0" transform="translate(0 -0.004)" fill="#dcdcdc"/>
</svg>
