<svg xmlns="http://www.w3.org/2000/svg" width="25.253" height="26" viewBox="0 0 25.253 26">
  <path id="Path_308" data-name="Path 308" d="M11.868,11.9v2.2l1.258.629,1.258-.629V11.9l-1.258-.629Zm1.677,1.677-.419.21-.419-.21V12.421l.419-.21.419.21ZM13.126,0a1.26,1.26,0,0,0-1.258,1.258v.466L10.626.659a1,1,0,0,0-.649-.24H9.931a1,1,0,0,0-.663,1.744l2.6,2.312v1.35L10.626,4.761a1,1,0,0,0-.65-.241H9.931a.984.984,0,0,0-.94,1.318.973.973,0,0,0-.248-.21,1,1,0,0,0-1.364.365l-.023.039a1,1,0,0,0-.117.683l.3,1.608L6.372,7.649l-.7-3.408a1,1,0,0,0-1.842-.3l-.023.04a1,1,0,0,0-.117.683l.3,1.608-.4-.234A1.258,1.258,0,0,0,2.328,8.219l.4.233L1.19,9a1,1,0,0,0-.533.442l-.023.04a1,1,0,0,0,1.179,1.446l3.3-1.1,1.169.675-1.542.543a1,1,0,0,0-.533.443l-.023.04a1,1,0,0,0,.365,1.363A.986.986,0,0,0,4.858,13a.984.984,0,0,0-.673,1.473l.023.04a1,1,0,0,0,.533.443l1.543.543-1.169.675-3.3-1.1a1,1,0,0,0-1.18,1.445l.024.04a1,1,0,0,0,.533.442l1.543.543-.4.233a1.258,1.258,0,0,0,1.258,2.18l.4-.234-.3,1.608a1,1,0,0,0,.116.683l.023.04a1,1,0,0,0,1.842-.3l.7-3.408,1.169-.675-.3,1.608a1,1,0,0,0,.116.683l.023.04a1,1,0,0,0,1.362.366.979.979,0,0,0,.249-.211.985.985,0,0,0,.94,1.318h.046a1,1,0,0,0,.649-.24l1.242-1.065v1.35l-2.6,2.312a1,1,0,0,0,.664,1.744h.046a1,1,0,0,0,.649-.24l1.242-1.064v.466a1.258,1.258,0,1,0,2.516,0v-.466l1.242,1.065a1,1,0,0,0,.65.24h.046a1,1,0,0,0,.663-1.744l-2.6-2.312v-1.35l1.242,1.064a1,1,0,0,0,.65.241h.046a.984.984,0,0,0,.94-1.318.972.972,0,0,0,.248.21,1,1,0,0,0,1.364-.365l.023-.039a1,1,0,0,0,.117-.683l-.3-1.608,1.169.675.7,3.408a1,1,0,0,0,1.842.3l.023-.04a1,1,0,0,0,.117-.683l-.3-1.608.4.234a1.258,1.258,0,0,0,1.258-2.179l-.4-.233L25.063,17a1,1,0,0,0,.534-.442l.023-.04a1,1,0,0,0-1.179-1.446l-3.3,1.1L19.97,15.5l1.542-.543a1,1,0,0,0,.533-.443l.023-.04a1,1,0,0,0-.365-1.363A.988.988,0,0,0,21.4,13a.981.981,0,0,0,.673-1.472l-.023-.04a1,1,0,0,0-.533-.443L19.97,10.5l1.169-.675,3.3,1.1a1,1,0,0,0,1.18-1.446l-.024-.04a1,1,0,0,0-.533-.442L23.52,8.45l.4-.233a1.258,1.258,0,0,0-1.258-2.18l-.4.234.3-1.608a1,1,0,0,0-.116-.683l-.023-.04a1,1,0,0,0-1.842.3l-.7,3.408-1.169.675.3-1.608a1,1,0,0,0-.116-.683l-.023-.04a1,1,0,0,0-1.362-.366.977.977,0,0,0-.249.211.983.983,0,0,0,.058-.318,1,1,0,0,0-1-1h-.046a1,1,0,0,0-.65.24L14.384,5.825V4.475l2.6-2.312A1,1,0,0,0,16.322.419h-.046a1,1,0,0,0-.65.24L14.384,1.724V1.258A1.26,1.26,0,0,0,13.126,0ZM9.268,6.264l2.6,2.312v1.23l-.943.471-1-.579-.7-3.407a1.02,1.02,0,0,0-.038-.12,1,1,0,0,0,.084.093Zm5.955,4.9v3.675l-2.1,1.048-2.1-1.048V11.162l2.1-1.048Zm.839,1.6,1.526-.88,3.3,1.1A1.07,1.07,0,0,0,21,13a.979.979,0,0,0-.113.025l-3.3,1.1-1.526-.88Zm-5.871.484-1.526.88-3.3-1.1A1.092,1.092,0,0,0,5.25,13a1.1,1.1,0,0,0,.113-.028l3.3-1.1,1.526.88Zm-5.28-1.3.023-.04a.159.159,0,0,1,.085-.071l3.263-1.149L5.208,8.912,1.547,10.127a.157.157,0,0,1-.129-.013.16.16,0,0,1-.074-.1A.159.159,0,0,1,1.36,9.9l.023-.04a.16.16,0,0,1,.086-.071L4.73,8.637,2.748,7.493a.419.419,0,0,1,.1-.768.415.415,0,0,1,.318.042L5.15,7.911l-.637-3.4A.156.156,0,0,1,4.532,4.4l.023-.04a.16.16,0,0,1,.294.047l.777,3.777L8.7,9.961l-.637-3.4a.157.157,0,0,1,.019-.109l.023-.04a.16.16,0,0,1,.1-.075.166.166,0,0,1,.122.017A.159.159,0,0,1,8.4,6.46l.777,3.776,1.013.585v.969l-1.432-.827L5.1,12.178a.159.159,0,0,1-.188-.231ZM8.4,19.541a.159.159,0,0,1-.077.106.163.163,0,0,1-.12.016.159.159,0,0,1-.1-.075l-.024-.04a.155.155,0,0,1-.018-.109l.636-3.4L5.627,17.814l-.778,3.777a.158.158,0,0,1-.077.106.16.16,0,0,1-.218-.059l-.024-.04a.155.155,0,0,1-.018-.109l.636-3.4L3.167,19.234a.418.418,0,0,1-.318.042.414.414,0,0,1-.254-.195.42.42,0,0,1,.153-.573l1.983-1.144L1.468,16.214a.16.16,0,0,1-.085-.07L1.36,16.1a.159.159,0,0,1,.058-.218.156.156,0,0,1,.13-.013l3.66,1.215,3.074-1.775L5.019,14.164a.159.159,0,0,1-.085-.071l-.023-.04a.16.16,0,0,1,.188-.231l3.66,1.215,1.431-.827v.969l-1.013.585Zm.784.287a.969.969,0,0,0,.038-.118l.7-3.408,1-.579.943.471v1.23l-2.6,2.312a1.007,1.007,0,0,0-.083.092Zm7.138.814h-.046a.157.157,0,0,1-.1-.039l-2.626-2.251V21.9l2.881,2.561a.162.162,0,0,1,.054.12.159.159,0,0,1-.159.159h-.046a.16.16,0,0,1-.1-.038l-2.626-2.252v2.29a.419.419,0,0,1-.839,0v-2.29L10.081,24.7a.159.159,0,0,1-.1.038H9.931a.159.159,0,0,1-.159-.159.162.162,0,0,1,.053-.12L12.707,21.9V18.352L10.08,20.6a.157.157,0,0,1-.1.039H9.931a.16.16,0,0,1-.106-.279L12.707,17.8V16.614l.419.21.419-.21V17.8l2.882,2.561a.16.16,0,0,1-.106.279Zm.663-.906-2.6-2.312v-1.23l.943-.471,1,.579.7,3.407a1.021,1.021,0,0,0,.038.12,1.031,1.031,0,0,0-.084-.093Zm4.357-5.683-.023.04a.159.159,0,0,1-.085.071l-3.262,1.149,3.074,1.775,3.661-1.215a.159.159,0,0,1,.2.11.159.159,0,0,1-.016.121l-.023.04a.16.16,0,0,1-.085.071l-3.263,1.149L23.5,18.507a.419.419,0,0,1-.1.768.414.414,0,0,1-.318-.042L21.1,18.089l.637,3.4a.156.156,0,0,1-.019.109l-.023.04a.159.159,0,0,1-.294-.047l-.778-3.777-3.074-1.775.637,3.4a.157.157,0,0,1-.019.109l-.023.04a.159.159,0,0,1-.294-.048l-.777-3.776-1.013-.585V14.21l1.432.827,3.66-1.215a.163.163,0,0,1,.13.013.16.16,0,0,1,.058.218Zm-3.49-7.595a.159.159,0,0,1,.294-.047l.023.04a.155.155,0,0,1,.018.109l-.636,3.4,3.074-1.775L21.4,4.409a.159.159,0,0,1,.294-.047l.024.04a.155.155,0,0,1,.018.109l-.636,3.4,1.983-1.145a.419.419,0,0,1,.573.154.42.42,0,0,1-.153.573L21.522,8.637l3.263,1.149a.159.159,0,0,1,.085.07l.023.04a.159.159,0,0,1,.016.121.161.161,0,0,1-.074.1.154.154,0,0,1-.13.013l-3.66-1.215-3.074,1.775,3.263,1.149a.159.159,0,0,1,.085.071l.023.04a.16.16,0,0,1-.188.231l-3.66-1.215-1.431.826v-.969l1.013-.585Zm-.784-.287a.969.969,0,0,0-.038.118l-.7,3.408-1,.579-.943-.471V8.575l2.6-2.312A1.007,1.007,0,0,0,17.069,6.172Zm-.9-4.875a.159.159,0,0,1,.1-.038h.046a.159.159,0,0,1,.159.159.162.162,0,0,1-.053.12L13.546,4.1V7.648L16.172,5.4a.157.157,0,0,1,.1-.039h.046a.16.16,0,0,1,.106.279L13.546,8.2V9.386l-.419-.21-.419.21V8.2L9.825,5.637a.16.16,0,0,1,.106-.279h.046a.158.158,0,0,1,.1.039l2.626,2.251V4.1L9.825,1.537a.162.162,0,0,1-.054-.12.159.159,0,0,1,.159-.159h.046a.161.161,0,0,1,.1.038l2.626,2.252V1.258a.419.419,0,0,1,.839,0v2.29Zm0,0" transform="translate(-0.5)" fill="#dcdcdc"/>
</svg>
