<svg xmlns="http://www.w3.org/2000/svg" width="26.248" height="26" viewBox="0 0 26.248 26">
  <path id="Path_309" data-name="Path 309" d="M11.007,22.613A2.119,2.119,0,0,0,8.89,20.5a2.088,2.088,0,0,0-.847.183V11.161a4.661,4.661,0,0,0,4.234-4.635V1.139l-.633.362a9.867,9.867,0,0,0-1.62,1.163,4.48,4.48,0,0,0-.762-1.022L7.62,0,5.979,1.642a4.5,4.5,0,0,0-.663.848c-.048-.029-.093-.06-.141-.088L2.963,1.139V6.526A4.661,4.661,0,0,0,7.2,11.161v2.605A5.5,5.5,0,0,0,2.54,11.183H0v.423a5.51,5.51,0,0,0,5.5,5.5H7.2v3.2A2.527,2.527,0,0,0,2.963,22.19a2.549,2.549,0,0,0,.045.469A1.692,1.692,0,0,0,3.387,26h7.62a1.693,1.693,0,0,0,0-3.387Zm.423-19.979V6.526a3.815,3.815,0,0,1-3.387,3.786V7.346c0-.1,0-.2-.008-.3l.053-.14a9.051,9.051,0,0,1,3.342-4.272ZM6.577,2.241,7.62,1.2,8.663,2.241a3.633,3.633,0,0,1,.722,1.034A9.909,9.909,0,0,0,7.758,5.566,5.75,5.75,0,0,0,7.443,4.8,5.669,5.669,0,0,0,6.015,2.993a3.637,3.637,0,0,1,.563-.752ZM3.81,6.526V2.6l.945.54a4.834,4.834,0,0,1,1.93,2.04A4.873,4.873,0,0,1,7.2,7.346v2.966A3.815,3.815,0,0,1,3.81,6.526Zm-2.944,5.5H2.54a4.664,4.664,0,0,1,4.569,3.761l-3.9-2.834-.5.685,3.6,2.621H5.5A4.663,4.663,0,0,1,.866,12.029ZM11.007,25.153H3.387a.847.847,0,1,1,.847-.847H5.08A1.69,1.69,0,0,0,3.9,22.7,1.671,1.671,0,0,1,5.5,20.5a1.7,1.7,0,0,1,1.62,1.232l.236.829.511-.695a1.257,1.257,0,0,1,1.019-.52,1.27,1.27,0,0,1,.783,2.27l.523.666a2.121,2.121,0,0,0,.622-.8.846.846,0,1,1,.189,1.67Zm8.044-11.81V11.161a4.662,4.662,0,0,0,4.234-4.636V1.139L21.073,2.4c-.048.028-.093.059-.141.088a4.508,4.508,0,0,0-.663-.848L18.628,0,16.986,1.642a4.481,4.481,0,0,0-.762,1.022A9.866,9.866,0,0,0,14.6,1.5l-.633-.362V6.526A4.661,4.661,0,0,0,18.2,11.161v4.722A5.5,5.5,0,0,0,13.547,13.3h-2.54v.423a5.51,5.51,0,0,0,5.5,5.5H18.2v1.453a2.088,2.088,0,0,0-.847-.183,2.119,2.119,0,0,0-2.117,2.117,1.693,1.693,0,1,0,0,3.387h7.62a1.692,1.692,0,0,0,.378-3.341,2.535,2.535,0,0,0-2.5-3.01,2.522,2.522,0,0,0-1.693.663V16.686h1.693a5.51,5.51,0,0,0,5.5-5.5v-.423h-2.54a5.5,5.5,0,0,0-4.657,2.584ZM20.744,20.5a1.671,1.671,0,0,1,1.606,2.2,1.69,1.69,0,0,0-1.183,1.606h.847a.847.847,0,1,1,.847.847h-7.62a.847.847,0,1,1,.189-1.67,2.119,2.119,0,0,0,.622.8l.523-.666a1.268,1.268,0,1,1,1.8-1.75l.511.695.236-.829A1.7,1.7,0,0,1,20.744,20.5ZM22.438,2.6V6.526a3.815,3.815,0,0,1-3.387,3.786V7.346a4.847,4.847,0,0,1,2.442-4.208Zm-4.853-.357L18.628,1.2l1.043,1.044a3.636,3.636,0,0,1,.563.752A5.647,5.647,0,0,0,18.49,5.566a9.9,9.9,0,0,0-1.628-2.291,3.635,3.635,0,0,1,.722-1.034ZM14.817,6.526V2.634A9.056,9.056,0,0,1,18.16,6.907l.053.141q-.009.149-.008.3v2.966a3.815,3.815,0,0,1-3.387-3.786Zm-2.944,7.62h1.674a4.664,4.664,0,0,1,4.569,3.761l-3.9-2.834-.5.685,3.6,2.621h-.815A4.663,4.663,0,0,1,11.873,14.146Zm8.871,1.693H19.93l3.6-2.621-.5-.685-3.9,2.834a4.664,4.664,0,0,1,4.569-3.762h1.674A4.663,4.663,0,0,1,20.744,15.839Zm0,0" fill="#dcdcdc"/>
</svg>
